# xmcd
#
# Track frame offsets:
# 150
# 13521
# 34799
# 47844
# 62462
# 78854
# 91094
# 105743
# 113136
# 122127
# 135839
# 151127
#
# Disc length: 2319 seconds
#
#
# Revision: 0
# Processed by: cddbd v1.5.1PL0 Copyright (c) Steve Scherf et al.
# Submitted via: FreeRIP 2.942 
#
DISCID=84090d0c
DTITLE=Harry Belafonte - Albun nº 100
DYEAR=2005
DGENRE=Baladas
TTITLE0=Day-0
TTITLE1=Johon Henry
TTITLE2=I love her
TTITLE3=Scarlet Ribbons
TTITLE4=Matilda Matilda
TTITLE5=The Fox
TTITLE6=Fareqwell
TTITLE7=I got a Jump
TTITLE8=Moon Mary
TTITLE9=Jamaica Farewell
TTITLE10=Shenabdoah
TTITLE11=Take my Mother Home
EXTD=s/c
EXTT0=
EXTT1=
EXTT2=
EXTT3=
EXTT4=
EXTT5=
EXTT6=
EXTT7=
EXTT8=
EXTT9=
EXTT10=
EXTT11=
PLAYORDER=
